<?xml version="1.0" encoding="UTF-8" standalone="no"?>
<!-- Created with Inkscape (http://www.inkscape.org/) -->

<svg
   width="118.55401mm"
   height="118.55401mm"
   viewBox="0 0 118.55401 118.55401"
   version="1.1"
   id="svg1"
   xml:space="preserve"
   inkscape:export-filename="logo.svg"
   inkscape:export-xdpi="96"
   inkscape:export-ydpi="96"
   xmlns:inkscape="http://www.inkscape.org/namespaces/inkscape"
   xmlns:sodipodi="http://sodipodi.sourceforge.net/DTD/sodipodi-0.dtd"
   xmlns="http://www.w3.org/2000/svg"
   xmlns:svg="http://www.w3.org/2000/svg"><sodipodi:namedview
     id="namedview1"
     pagecolor="#ffffff"
     bordercolor="#000000"
     borderopacity="0.25"
     inkscape:showpageshadow="2"
     inkscape:pageopacity="0.0"
     inkscape:pagecheckerboard="0"
     inkscape:deskcolor="#d1d1d1"
     inkscape:document-units="mm" /><defs
     id="defs1" /><g
     inkscape:label="Layer 1"
     inkscape:groupmode="layer"
     id="layer1"
     transform="translate(-61.740427,-88.671978)"><g
       id="g5"><path
         d="m 123.40215,187.56199 c -0.56672,-0.001 -1.14148,0.0391 -1.71979,0.12248 -12.64637,1.82312 -8.71562,21.25039 3.70416,19.42 6.25289,-0.92153 9.96479,-7.98181 7.32255,-13.67875 -1.75944,-3.79355 -5.33987,-5.8545 -9.30692,-5.86373 z"
         style="fill:#f2b13d;stroke-width:2.121"
         id="path5"
         inkscape:export-filename="logo.svg"
         inkscape:export-xdpi="96"
         inkscape:export-ydpi="96" /><path
         d="m 146.81467,134.29134 c -0.85379,-0.0309 -1.69392,0.009 -2.30425,0.29198 -1.13703,0.52753 -1.29761,2.99665 -1.66243,4.07365 -0.90874,2.68272 -2.54965,5.11013 -4.52065,7.13341 -7.42865,7.62567 -20.01107,6.79699 -24.30084,18.00201 -1.66744,4.35553 -1.60484,8.6394 -1.60455,13.22916 8e-5,1.23035 -0.26698,3.85682 0.5364,4.86792 0.7215,0.90804 3.44723,0.42375 4.49068,0.42375 h 10.84791 c 1.23845,0 3.28165,0.38967 4.41472,-0.15916 1.0084,-0.48844 0.9478,-2.5913 1.14256,-3.54501 0.48337,-2.36688 1.32985,-4.39945 3.175,-6.03632 2.90729,-2.57909 7.2951,-3.64721 10.5823,-5.7888 6.8457,-4.45992 12.27999,-10.82011 15.49725,-18.33738 1.34594,-3.14487 2.27141,-6.41471 2.82412,-9.78958 0.14324,-0.87433 0.77036,-2.77144 0.1881,-3.54449 -0.72716,-0.96541 -3.92277,-0.42426 -5.01572,-0.42426 -3.98345,0 -7.92436,-0.26458 -11.90625,-0.26458 -0.6633,0 -1.53055,-0.10142 -2.38435,-0.1323 z"
         style="fill:#f2b13d;stroke-width:2.121"
         id="path4" /><path
         d="m 120.88861,88.730825 c -20.30275,1.770578 -38.081388,16.929805 -40.171706,37.755315 -0.848029,8.44869 0.612714,17.40644 4.82968,24.87083 0.899999,1.59308 3.033571,6.44663 5.179528,6.44663 0.955499,0 1.631705,-1.05312 2.192115,-1.68413 1.476028,-1.66197 3.148908,-3.13681 4.663278,-4.7625 1.98987,-2.13616 6.857295,-5.57256 7.492055,-8.46667 0.4065,-1.85341 -1.66278,-4.71823 -2.01383,-6.61458 -1.04854,-5.66401 -0.20975,-11.65061 3.20962,-16.40417 2.42876,-3.37642 5.70478,-6.02891 9.59218,-7.54992 1.37228,-0.53694 5.46211,-0.65405 6.04614,-2.03502 0.69764,-1.64962 0.30385,-4.00869 0.30385,-5.76089 0,-3.69603 0.17802,-7.409747 0.26872,-11.112493 0.0424,-1.731169 1.19312,-4.925252 -1.59163,-4.682402 z"
         style="fill:#f2b13d;stroke-width:2.121"
         id="path3" /><path
         d="m 129.89219,88.677598 c -0.36074,0.01697 -0.69173,0.07297 -0.98237,0.177767 -1.19578,0.43118 -0.94375,3.781866 -1.0666,4.822445 -0.47589,4.031126 -0.61424,8.12353 -0.89297,12.17083 -0.0906,1.31597 -0.77965,3.436 -0.28525,4.68911 0.44652,1.13179 2.74519,1.20315 3.74861,1.53376 2.66296,0.87739 5.07896,2.43166 7.13341,4.31963 2.34027,2.15063 4.15289,4.73258 5.28443,7.71375 0.49504,1.3042 0.45569,3.88411 1.48984,4.83071 1.06477,0.97463 3.79943,0.46095 5.14232,0.46095 h 11.64166 c 1.28885,0 3.50628,0.42633 4.67724,-0.15916 1.00441,-0.50221 0.31817,-2.92486 0.1974,-3.80959 -0.55173,-4.04171 -1.52569,-7.87974 -3.13572,-11.64166 -4.52139,-10.56447 -13.60407,-19.042964 -24.49308,-22.75313 -1.94207,-0.661718 -5.93372,-2.474222 -8.45892,-2.355412 z"
         style="fill:#f2b13d;stroke-width:2.121"
         id="path2" /></g></g></svg>
